<svg xmlns="http://www.w3.org/2000/svg" viewBox="0 0 53.77 53.77"><defs><style>.cls-1{fill:#e96724;}</style></defs><title>Icon</title><g id="Layer_2" data-name="Layer 2"><g id="Layer_1-2" data-name="Layer 1"><path class="cls-1" d="M20.16,43.71v3.34H1.68A1.68,1.68,0,0,1,0,45.37C0,32.77,5.38,27.2,8.7,25a15.11,15.11,0,1,1,26.59-9.83,14.67,14.67,0,0,1-.4,3.38c-1.25,0-1.29,0-3,0V15.12A11.76,11.76,0,1,0,12,23.55a1.67,1.67,0,0,1,.31,3.25C12,26.92,4,29.87,2.86,43.71ZM12,28.79c-1.55.9-5.3,3.79-6.55,11.26A1.68,1.68,0,0,0,6.83,42l.28,0A1.69,1.69,0,0,0,8.77,40.6c1-6.23,4-8.39,4.91-8.9A1.68,1.68,0,0,0,12,28.79Zm25-.23a1.69,1.69,0,0,0-1.68-1.68,8.42,8.42,0,0,0-8.41,8.41,1.68,1.68,0,0,0,3.36,0,5.06,5.06,0,0,1,5.05-5.05A1.68,1.68,0,0,0,37,28.56ZM53.28,50.9a1.7,1.7,0,0,1,0,2.38,1.69,1.69,0,0,1-2.38,0l-7.39-7.39a13.51,13.51,0,1,1,2.38-2.38ZM45.37,35.29A10.09,10.09,0,1,0,35.29,45.37,10.1,10.1,0,0,0,45.37,35.29ZM20.16,5a1.68,1.68,0,1,0,0,3.36,6.73,6.73,0,0,1,6.72,6.72,1.68,1.68,0,0,0,3.36,0A10.09,10.09,0,0,0,20.16,5Z"/></g></g></svg>